<?xml version="1.0" encoding="UTF-8" standalone="no"?>
<!-- Created with Inkscape (http://www.inkscape.org/) -->

<svg
   width="210mm"
   height="297mm"
   viewBox="0 0 210 297"
   version="1.1"
   id="svg5"
   inkscape:version="1.4.2 (f4327f4, 2025-05-13)"
   sodipodi:docname="node_example.svg"
   xmlns:inkscape="http://www.inkscape.org/namespaces/inkscape"
   xmlns:sodipodi="http://sodipodi.sourceforge.net/DTD/sodipodi-0.dtd"
   xmlns="http://www.w3.org/2000/svg"
   xmlns:svg="http://www.w3.org/2000/svg">
  <sodipodi:namedview
     id="namedview7"
     pagecolor="#ffffff"
     bordercolor="#000000"
     borderopacity="0.25"
     inkscape:showpageshadow="2"
     inkscape:pageopacity="0.0"
     inkscape:pagecheckerboard="0"
     inkscape:deskcolor="#d1d1d1"
     inkscape:document-units="mm"
     showgrid="false"
     showguides="false"
     inkscape:zoom="0.3750491"
     inkscape:cx="659.9136"
     inkscape:cy="451.94083"
     inkscape:window-width="1452"
     inkscape:window-height="749"
     inkscape:window-x="452"
     inkscape:window-y="177"
     inkscape:window-maximized="0"
     inkscape:current-layer="layer1">
    <sodipodi:guide
       position="50,261.46344"
       orientation="-1,0"
       id="guide3815"
       inkscape:locked="false"
       inkscape:label=""
       inkscape:color="rgb(0,134,229)" />
    <sodipodi:guide
       position="100,214.69177"
       orientation="-1,0"
       id="guide3817"
       inkscape:locked="false"
       inkscape:label=""
       inkscape:color="rgb(0,134,229)" />
    <sodipodi:guide
       position="50,247"
       orientation="0,1"
       id="guide3819"
       inkscape:locked="false"
       inkscape:label=""
       inkscape:color="rgb(0,134,229)" />
    <sodipodi:guide
       position="60,247.00001"
       orientation="-1,0"
       id="guide3821"
       inkscape:locked="false"
       inkscape:label=""
       inkscape:color="rgb(0,134,229)" />
    <sodipodi:guide
       position="90,247.00001"
       orientation="-1,0"
       id="guide3823"
       inkscape:locked="false"
       inkscape:label=""
       inkscape:color="rgb(0,134,229)" />
    <sodipodi:guide
       position="99.999997,257"
       orientation="0,1"
       id="guide3825"
       inkscape:locked="false"
       inkscape:label=""
       inkscape:color="rgb(0,134,229)" />
    <sodipodi:guide
       position="88.5,246.9"
       orientation="-1,0"
       id="guide5577"
       inkscape:locked="false"
       inkscape:label=""
       inkscape:color="rgb(0,134,229)" />
    <sodipodi:guide
       position="99.999997,256.7"
       orientation="0,1"
       id="guide5579"
       inkscape:locked="false"
       inkscape:label=""
       inkscape:color="rgb(0,134,229)" />
    <sodipodi:guide
       position="60.3,257.00001"
       orientation="-1,0"
       id="guide5581"
       inkscape:locked="false"
       inkscape:label=""
       inkscape:color="rgb(0,134,229)" />
    <sodipodi:guide
       position="60.6,257.00001"
       orientation="-1,0"
       id="guide5611"
       inkscape:locked="false"
       inkscape:label=""
       inkscape:color="rgb(0,134,229)" />
    <sodipodi:guide
       position="86.999998,247.00001"
       orientation="1,0"
       id="guide5641"
       inkscape:locked="false" />
    <sodipodi:guide
       position="85.5,247.00001"
       orientation="-1,0"
       id="guide5643"
       inkscape:locked="false"
       inkscape:label=""
       inkscape:color="rgb(0,134,229)" />
    <sodipodi:guide
       position="49.899999,242"
       orientation="0,1"
       id="guide7373"
       inkscape:locked="false"
       inkscape:label=""
       inkscape:color="rgb(0,134,229)" />
    <sodipodi:guide
       position="35.714073,207"
       orientation="0,1"
       id="guide7676"
       inkscape:locked="false"
       inkscape:label=""
       inkscape:color="rgb(0,134,229)" />
    <sodipodi:guide
       position="53.019966,246.7"
       orientation="0,1"
       id="guide7705"
       inkscape:locked="false"
       inkscape:label=""
       inkscape:color="rgb(0,134,229)" />
    <sodipodi:guide
       position="98.5,237.01559"
       orientation="-1,0"
       id="guide7707"
       inkscape:locked="false"
       inkscape:label=""
       inkscape:color="rgb(0,134,229)" />
    <sodipodi:guide
       position="78.57096,208.5"
       orientation="0,1"
       id="guide7711"
       inkscape:locked="false"
       inkscape:label=""
       inkscape:color="rgb(0,134,229)" />
    <sodipodi:guide
       position="97,242.00001"
       orientation="-1,0"
       id="guide8464"
       inkscape:locked="false"
       inkscape:label=""
       inkscape:color="rgb(0,134,229)" />
    <sodipodi:guide
       position="95.5,242"
       orientation="-1,0"
       id="guide8466"
       inkscape:locked="false"
       inkscape:label=""
       inkscape:color="rgb(0,134,229)" />
    <sodipodi:guide
       position="93.672281,246.4"
       orientation="0,1"
       id="guide8524"
       inkscape:locked="false"
       inkscape:label=""
       inkscape:color="rgb(0,134,229)" />
  </sodipodi:namedview>
  <defs
     id="defs2">
    <rect
       x="263.72491"
       y="324.33981"
       width="281.38649"
       height="47.95055"
       id="rect1220" />
    <rect
       x="381.3638"
       y="445.85578"
       width="178.81269"
       height="46.102097"
       id="rect1162" />
    <rect
       x="263.72491"
       y="324.33981"
       width="281.38651"
       height="47.95055"
       id="rect1220-3" />
    <rect
       x="263.72491"
       y="324.33981"
       width="281.38651"
       height="47.95055"
       id="rect1220-3-5" />
    <rect
       x="263.72491"
       y="324.33981"
       width="281.38651"
       height="47.95055"
       id="rect1220-3-5-2" />
    <rect
       x="263.72491"
       y="324.33981"
       width="281.38651"
       height="47.95055"
       id="rect1220-3-5-27" />
    <rect
       x="263.72491"
       y="324.33981"
       width="281.38651"
       height="47.95055"
       id="rect1220-3-5-6" />
    <rect
       x="263.72491"
       y="324.33981"
       width="281.38651"
       height="47.95055"
       id="rect1220-3-5-0" />
    <rect
       x="263.72491"
       y="324.33981"
       width="281.38651"
       height="47.95055"
       id="rect1220-3-5-0-8" />
    <rect
       x="263.72491"
       y="324.33981"
       width="281.38651"
       height="47.95055"
       id="rect1220-3-5-0-8-3" />
    <rect
       x="263.72491"
       y="324.33981"
       width="281.38651"
       height="47.95055"
       id="rect1220-3-5-0-84" />
    <rect
       x="263.72491"
       y="324.33981"
       width="281.38651"
       height="47.95055"
       id="rect1220-3-5-0-1" />
    <rect
       x="263.72491"
       y="324.33981"
       width="281.38651"
       height="47.95055"
       id="rect1220-3-5-0-0" />
  </defs>
  <g
     inkscape:label="Layer 1"
     inkscape:groupmode="layer"
     id="layer1">
    <rect
       style="fill:#cccccc;fill-opacity:1;stroke:none;stroke-width:0.499999;stroke-linejoin:round;stroke-dasharray:none;stroke-opacity:1"
       id="rect3881"
       width="50"
       height="39.984421"
       x="50"
       y="50"
       ry="1.2082647e-06" />
    <rect
       style="fill:#ffc499;fill-opacity:1;stroke:none;stroke-width:0.499999;stroke-linejoin:round;stroke-dasharray:none;stroke-opacity:1"
       id="rect4923"
       width="30.000002"
       height="10"
       x="60"
       y="40"
       ry="6.480949e-07" />
    <path
       style="fill:#ff8833;fill-opacity:1;stroke:none;stroke-width:0.2;stroke-linejoin:round;stroke-dasharray:none;stroke-opacity:1"
       d="m 60.6,50 v -8.39637 c 2e-6,-0.845423 0.132904,-1.003627 0.657005,-1.003628 h 24.470763 c 1.295233,-1e-6 1.272234,0 1.272234,1.11616 V 50 L 85.5,50.000001 v -8.112478 c 0,-0.658156 -0.289778,-0.996798 -1.014196,-0.996798 H 61.404239 c -0.433998,0 -0.523387,0.24267 -0.523387,0.67249 L 60.913355,50 Z"
       id="path5575-1-8"
       sodipodi:nodetypes="ccccccccccccc" />
    <path
       style="fill:#cc5500;fill-opacity:1;stroke:none;stroke-width:0.2;stroke-linejoin:round;stroke-dasharray:none;stroke-opacity:1"
       d="M 60.3,50.000001 V 41.33566 c 2e-6,-0.872405 0.141965,-1.035658 0.701801,-1.035659 h 26.139222 c 1.383544,-1e-6 1.358977,0 1.358977,1.151782 v 8.548218 L 87,50 v -8.371387 c 0,-0.679161 -0.41181,-1.028611 -1.18562,-1.028611 H 61.283645 c -0.463589,0 -0.683645,0.425521 -0.683645,0.869059 l 0.03472,8.53094 z"
       id="path5575-1"
       sodipodi:nodetypes="ccccccccccccc" />
    <path
       style="fill:#662b00;fill-opacity:1;stroke:none;stroke-width:0.2;stroke-linejoin:round;stroke-dasharray:none;stroke-opacity:1"
       d="M 59.999998,50 60,41.28491 c 2e-6,-0.872405 0.682206,-1.284909 1.242042,-1.28491 h 27.004463 c 0.97732,-10e-7 1.753497,0.507965 1.753497,1.300608 L 89.999999,50 88.5,50.000001 l 0,-8.671389 c 0,-0.679161 -0.411807,-1.028611 -1.185615,-1.028611 l -26.031291,0 C 60.726238,40.300001 60.3,40.777166 60.3,41.33566 l 0,8.664341 z"
       id="path5575"
       sodipodi:nodetypes="ccccccccccccc" />
    <text
       xml:space="preserve"
       transform="matrix(0.26458333,0,0,0.26458333,-32.002252,-44.588762)"
       id="text1218-6-3-23"
       style="font-size:26.6667px;text-align:center;white-space:pre;shape-inside:url(#rect1220-3-5-0);display:inline;fill:#662b00;fill-opacity:1;stroke:none;stroke-width:1.88976;stroke-dasharray:none;stroke-opacity:1"
       x="92.49601"
       y="0"><tspan
         x="367.91402"
         y="348.66868"
         id="tspan2"><tspan
           style="-inkscape-font-specification:sans-serif"
           id="tspan1">audio</tspan></tspan></text>
    <rect
       style="fill:#ff99ff;fill-opacity:1;stroke:none;stroke-width:0.499999;stroke-linejoin:round;stroke-dasharray:none;stroke-opacity:1"
       id="rect4923-4"
       width="30.000002"
       height="10"
       x="-90"
       y="-100"
       ry="6.480949e-07"
       transform="scale(-1)" />
    <path
       style="fill:#ff33ff;fill-opacity:1;stroke:none;stroke-width:0.2;stroke-linejoin:round;stroke-dasharray:none;stroke-opacity:1"
       d="m 89.400003,89.999999 v 8.396372 c -2e-6,0.84542 -0.132904,1.00363 -0.657005,1.00363 H 64.272235 c -1.295233,0 -1.272234,0 -1.272234,-1.11616 v -8.283842 h 1.500002 v 8.112482 c 0,0.65815 0.289778,0.99679 1.014196,0.99679 h 23.081565 c 0.433998,0 0.523387,-0.24267 0.523387,-0.67249 l -0.0325,-8.436782 z"
       id="path5575-1-8-4"
       sodipodi:nodetypes="ccccccccccccc" />
    <path
       style="fill:#cc00cc;fill-opacity:1;stroke:none;stroke-width:0.2;stroke-linejoin:round;stroke-dasharray:none;stroke-opacity:1"
       d="m 89.700003,89.999999 v 8.664342 c -2e-6,0.8724 -0.141965,1.035663 -0.701801,1.035663 H 62.85898 c -1.383544,0 -1.358977,0 -1.358977,-1.151783 v -8.548222 h 1.5 v 8.371392 c 0,0.67916 0.41181,1.02861 1.18562,1.02861 h 24.530735 c 0.463589,0 0.683645,-0.42552 0.683645,-0.86906 l -0.03472,-8.530942 z"
       id="path5575-1-4"
       sodipodi:nodetypes="ccccccccccccc" />
    <path
       style="fill:#660066;fill-opacity:1;stroke:none;stroke-width:0.2;stroke-linejoin:round;stroke-dasharray:none;stroke-opacity:1"
       d="m 90.000005,89.999999 -2e-6,8.715092 C 90.000001,99.587491 89.317797,100 88.757961,100 H 61.753498 c -0.97732,0 -1.753497,-0.507969 -1.753497,-1.300609 l 3e-6,-8.699392 h 1.499999 v 8.671392 c 0,0.67916 0.411807,1.028613 1.185615,1.028613 h 26.031291 c 0.556856,0 0.983094,-0.477173 0.983094,-1.035663 v -8.664342 z"
       id="path5575-4"
       sodipodi:nodetypes="ccccccccccccc" />
    <text
       xml:space="preserve"
       transform="matrix(-0.26458333,0,0,-0.26458333,182.00225,184.58876)"
       id="text1218-6-3-23-7"
       style="font-size:26.6667px;text-align:center;white-space:pre;shape-inside:url(#rect1220-3-5-0-0);display:inline;fill:#660066;fill-opacity:1;stroke:none;stroke-width:1.88976;stroke-dasharray:none;stroke-opacity:1"
       x="92.49601"
       y="0"><tspan
         x="368.95568"
         y="348.66868"
         id="tspan3">V/oct</tspan></text>
    <text
       xml:space="preserve"
       transform="matrix(0.26458333,0,0,0.26458333,-32.900263,-13.141726)"
       id="text1218-6-3-23-0"
       style="font-size:26.6667px;text-align:center;white-space:pre;shape-inside:url(#rect1220-3-5-0-1);display:inline;fill:#000000;fill-opacity:1;stroke:none;stroke-width:1.88976;stroke-dasharray:none;stroke-opacity:1"
       x="92.49601"
       y="0"><tspan
         x="335.09496"
         y="348.66868"
         id="tspan4">Wavetable</tspan></text>
    <text
       xml:space="preserve"
       transform="matrix(0.26458333,0,0,0.26458333,-33.174018,-25.706879)"
       id="text1218-6-3-23-8"
       style="font-size:32px;text-align:center;white-space:pre;shape-inside:url(#rect1220-3-5-0-84);display:inline;fill:#000000;fill-opacity:1;stroke:none;stroke-width:1.88976;stroke-dasharray:none;stroke-opacity:1"
       x="92.49601"
       y="0"><tspan
         x="367.87109"
         y="353.53441"
         id="tspan6"><tspan
           style="font-weight:bold;-inkscape-font-specification:'sans-serif Bold'"
           id="tspan5">OSC</tspan></tspan></text>
    <rect
       style="fill:#99ddff;fill-opacity:1;stroke:none;stroke-width:0.499999;stroke-linejoin:round;stroke-dasharray:none;stroke-opacity:1"
       id="rect4923-8"
       width="30.000002"
       height="10"
       x="55.000004"
       y="-110"
       ry="6.480949e-07"
       transform="rotate(90)" />
    <path
       style="fill:#33bbff;fill-opacity:1;stroke:none;stroke-width:0.2;stroke-linejoin:round;stroke-dasharray:none;stroke-opacity:1"
       d="m 100,55.600003 h 8.39637 c 0.84542,2e-6 1.00363,0.132904 1.00363,0.657005 V 80.72777 C 109.4,82.023 109.4,82 108.28384,82 H 100 v -1.5 h 8.11248 c 0.65815,0 0.99679,-0.28978 0.99679,-1.01419 V 56.404242 c 0,-0.433998 -0.24266,-0.523387 -0.67249,-0.523387 L 100,55.913355 Z"
       id="path5575-1-8-5"
       sodipodi:nodetypes="ccccccccccccc" />
    <path
       style="fill:#0088cc;fill-opacity:1;stroke:none;stroke-width:0.2;stroke-linejoin:round;stroke-dasharray:none;stroke-opacity:1"
       d="m 100,55.300003 h 8.66434 c 0.87241,2e-6 1.03566,0.141965 1.03566,0.701801 V 82.14103 c 0,1.38354 0,1.35897 -1.15178,1.35897 H 100 V 82 h 8.37139 C 109.05055,82 109.4,81.58819 109.4,80.81438 V 56.283648 c 0,-0.463589 -0.42552,-0.683645 -0.86906,-0.683645 L 100,55.634723 Z"
       id="path5575-1-0"
       sodipodi:nodetypes="ccccccccccccc" />
    <path
       style="fill:#004466;fill-opacity:1;stroke:none;stroke-width:0.2;stroke-linejoin:round;stroke-dasharray:none;stroke-opacity:1"
       d="m 100,55.000001 8.71509,2e-6 c 0.8724,2e-6 1.28491,0.682206 1.28491,1.242042 V 83.24651 C 110,84.22383 109.49204,85 108.69939,85 H 100 v -1.5 h 8.67139 c 0.67916,0 1.02861,-0.4118 1.02861,-1.18561 V 56.283097 c 0,-0.556856 -0.47717,-0.983094 -1.03566,-0.983094 H 100 Z"
       id="path5575-9"
       sodipodi:nodetypes="ccccccccccccc" />
    <text
       xml:space="preserve"
       transform="matrix(0,0.26458333,-0.26458333,0,194.58877,-37.002249)"
       id="text1218-6-3-23-6"
       style="font-size:26.6667px;text-align:center;white-space:pre;shape-inside:url(#rect1220-3-5-0-8);display:inline;fill:#004466;fill-opacity:1;stroke:none;stroke-width:1.88976;stroke-dasharray:none;stroke-opacity:1"
       x="92.49601"
       y="0"><tspan
         x="385.99347"
         y="348.66868"
         id="tspan7">CV</tspan></text>
    <rect
       style="fill:#bbff99;fill-opacity:1;stroke:none;stroke-width:0.499999;stroke-linejoin:round;stroke-dasharray:none;stroke-opacity:1"
       id="rect4923-8-8"
       width="30.000002"
       height="10"
       x="-85"
       y="40"
       ry="6.480949e-07"
       transform="rotate(-90)" />
    <path
       style="fill:#77ff33;fill-opacity:1;stroke:none;stroke-width:0.2;stroke-linejoin:round;stroke-dasharray:none;stroke-opacity:1"
       d="m 50.000003,84.400003 h -8.396371 c -0.84542,0 -1.00363,-0.13291 -1.00363,-0.65701 V 59.272232 c 0,-1.29523 0,-1.27223 1.11616,-1.27223 h 8.283841 v 1.5 h -8.112481 c -0.65815,0 -0.99679,0.28978 -0.99679,1.01419 v 23.081571 c 0,0.434 0.24266,0.52339 0.67249,0.52339 l 8.436781,-0.0325 z"
       id="path5575-1-8-5-5"
       sodipodi:nodetypes="ccccccccccccc" />
    <path
       style="fill:#41cc00;fill-opacity:1;stroke:none;stroke-width:0.2;stroke-linejoin:round;stroke-dasharray:none;stroke-opacity:1"
       d="m 50.000003,84.700003 h -8.664341 c -0.87241,0 -1.03566,-0.14197 -1.03566,-0.7018 V 57.858972 c 0,-1.38354 0,-1.35897 1.15178,-1.35897 h 8.548221 v 1.5 h -8.371391 c -0.67916,0 -1.02861,0.41181 -1.02861,1.18562 v 24.530731 c 0,0.46359 0.42552,0.68365 0.86906,0.68365 l 8.530941,-0.0347 z"
       id="path5575-1-0-6"
       sodipodi:nodetypes="ccccccccccccc" />
    <path
       style="fill:#206600;fill-opacity:1;stroke:none;stroke-width:0.2;stroke-linejoin:round;stroke-dasharray:none;stroke-opacity:1"
       d="m 50.000003,85.000003 h -8.715091 c -0.8724,0 -1.28491,-0.68221 -1.28491,-1.24204 V 56.753492 c 0,-0.97732 0.50796,-1.75349 1.30061,-1.75349 h 8.699391 v 1.5 h -8.671391 c -0.67916,0 -1.02861,0.4118 -1.02861,1.18561 v 26.031291 c 0,0.55686 0.47717,0.9831 1.03566,0.9831 h 8.664341 z"
       id="path5575-9-1"
       sodipodi:nodetypes="ccccccccccccc" />
    <text
       xml:space="preserve"
       transform="matrix(0,-0.26458333,0.26458333,0,-45.427934,178.21636)"
       id="text1218-6-3-23-6-1"
       style="font-size:26.6667px;text-align:center;white-space:pre;shape-inside:url(#rect1220-3-5-0-8-3);display:inline;fill:#226600;fill-opacity:1;stroke:none;stroke-width:1.88976;stroke-dasharray:none;stroke-opacity:1"
       x="92.49601"
       y="0"><tspan
         x="374.90621"
         y="348.66868"
         id="tspan8">gate</tspan></text>
    <path
       style="fill:#999999;fill-opacity:1;stroke:none;stroke-width:0.2;stroke-linejoin:round;stroke-dasharray:none;stroke-opacity:1"
       d="m 68.242039,50.600001 c 2.999858,0.01558 27.004461,0 27.004461,0 1.7535,0 1.7535,0 1.7535,1.300608 l 0,38.099392 h -1.5 l 0,-38.071389 c 0,-0.67916 -0.41181,-1.028611 -1.18562,-1.028611 L 50,50.915581 l 0,-0.31558 z"
       id="path5575-5-7-5"
       sodipodi:nodetypes="cccccccccc" />
    <path
       style="fill:#999999;fill-opacity:1;stroke:none;stroke-width:0.2;stroke-linejoin:round;stroke-dasharray:none;stroke-opacity:1"
       d="m 81.757962,89.415581 c -2.999857,-0.01558 -27.004462,0 -27.004462,0 -1.7535,0 -1.7535,0 -1.7535,-1.300608 V 50.015581 h 1.5 V 88.08697 c 0,0.67916 0.41181,1.028611 1.18562,1.028611 L 100,89.100001 v 0.31558 z"
       id="path5575-5-7-5-6"
       sodipodi:nodetypes="cccccccccc" />
    <path
       style="fill:#666666;fill-opacity:1;stroke:none;stroke-width:0.2;stroke-linejoin:round;stroke-dasharray:none;stroke-opacity:1"
       d="m 69.742038,50.300001 c 2.999858,0.01558 27.004462,0 27.004462,0 1.7535,0 1.7535,0 1.7535,1.300608 V 90.015583 L 97,90.000001 97,51.628613 c 0,-0.679161 -0.41181,-1.028611 -1.18562,-1.028611 L 50,50.600001 v -0.3 z"
       id="path5575-5-7"
       sodipodi:nodetypes="cccccccccc" />
    <path
       style="fill:#666666;fill-opacity:1;stroke:none;stroke-width:0.2;stroke-linejoin:round;stroke-dasharray:none;stroke-opacity:1"
       d="m 80.257959,89.715583 c -2.999856,-0.01558 -27.004459,0 -27.004459,0 -1.7535,0 -1.7535,0 -1.7535,-1.300608 V 50.000001 l 1.5,0.01558 v 38.37139 c 0,0.679161 0.41181,1.028611 1.18562,1.028611 l 45.814379,10e-7 v 0.3 z"
       id="path5575-5-7-9"
       sodipodi:nodetypes="cccccccccc" />
    <path
       style="fill:#333333;fill-opacity:1;stroke:none;stroke-width:0.2;stroke-linejoin:round;stroke-dasharray:none;stroke-opacity:1"
       d="m 71.242038,50.000001 c 2.999858,0.01558 27.004462,0 27.004462,0 C 99.22382,50 100,50.507966 100,51.300609 v 38.714974 h -1.5 v -38.68697 c 0,-0.679161 -0.41181,-1.028611 -1.18562,-1.028611 L 50,50.315583 50,50.000001 Z"
       id="path5575-5"
       sodipodi:nodetypes="cccccccccc" />
    <path
       style="fill:#333333;fill-opacity:1;stroke:none;stroke-width:0.2;stroke-linejoin:round;stroke-dasharray:none;stroke-opacity:1"
       d="m 78.757956,90.015585 c -2.99986,-0.0156 -27.004456,0 -27.004456,0 C 50.77618,90.015585 50,89.50762 50,88.714977 V 50.000001 h 1.5 v 38.686972 c 0,0.679161 0.41181,1.028611 1.18562,1.028611 l 47.314376,-0.01558 v 0.300001 z"
       id="path5575-5-3"
       sodipodi:nodetypes="cccccccccc" />
  </g>
</svg>
